<svg preserveAspectRatio="none" viewBox="0 0 480 480" width="300" height="300"  xmlns="http://www.w3.org/2000/svg">
<line x1="10" y1="10" x2="10" y2="472" stroke-width="1" stroke="#000000"/>
<line x1="10" y1="472" x2="472" y2="472" stroke-width="1" stroke="#000000"/>
<line x1="472" y1="472" x2="472" y2="10" stroke-width="1" stroke="#000000"/>
<line x1="472" y1="472" x2="472" y2="10" stroke-width="1" stroke="#000000"/>
<line x1="472" y1="10" x2="10" y2="10" stroke-width="1" stroke="#000000"/>
<line x1="10" y1="126" x2="472" y2="126" stroke-width="1" stroke="#000000"/>
<line x1="10" y1="242" x2="126" y2="242" stroke-width="1" stroke="#000000"/>
<line x1="358" y1="242" x2="472" y2="242" stroke-width="1" stroke="#000000"/>
<line x1="10" y1="358" x2="472" y2="358" stroke-width="1" stroke="#000000"/>
<line x1="126" y1="10" x2="126" y2="472" stroke-width="1" stroke="#000000"/>
<line x1="242" y1="10" x2="242" y2="126" stroke-width="1" stroke="#000000"/>
<line x1="242" y1="358" x2="242" y2="472" stroke-width="1" stroke="#000000"/>
<line x1="358" y1="10" x2="358" y2="472" stroke-width="1" stroke="#000000"/>
<text x="223" y="216" font-size="16" >Rasi</text>
<text x="196" y="246" font-size="16" >24 - Jul - 1999</text>
<text x="206" y="276" font-size="16" >06:25:00 pm</text>
<text x="131" y="30" font-size="16" >1</text>
<text x="247" y="30" font-size="16" >2</text>
<text x="363" y="30" font-size="16" >3</text>
<text x="363" y="146" font-size="16" >4</text>
<text x="363" y="262" font-size="16" >5</text>
<text x="363" y="378" font-size="16" >6</text>
<text x="247" y="378" font-size="16" >7</text>
<text x="131" y="378" font-size="16" >8</text>
<text x="15" y="378" font-size="16" >9</text>
<text x="15" y="262" font-size="16" >10</text>
<text x="15" y="146" font-size="16" >11</text>
<text x="15" y="30" font-size="16" >12</text>
<line x1="10" y1="260" x2="28" y2="242" stroke-width="2" stroke="#000000"/>
<line x1="10" y1="266" x2="34" y2="242" stroke-width="2" stroke="#000000"/>
<text x="57" y="294" font-size="16" class="pk-planet-ascendant" >Asc</text>
<text x="57" y="314" font-size="16" class="pk-planet-ketu" >Ke</text>
<text x="173" y="62" font-size="16" class="pk-planet-jupiter" >Ju</text>
<text x="173" y="82" font-size="16" class="pk-planet-saturn" >Sa</text>
<text x="405" y="175" font-size="16" class="pk-planet-sun" >Su</text>
<text x="405" y="195" font-size="16" class="pk-planet-mercury" >Me</text>
<text x="405" y="215" font-size="16" class="pk-planet-rahu" >Ra</text>
<text x="405" y="297" font-size="16" class="pk-planet-venus" >Ve</text>
<text x="289" y="413" font-size="16" class="pk-planet-mars" >Ma</text>
<text x="173" y="413" font-size="16" class="pk-planet-moon" >Mo</text>
</svg>